{"title":"Shrek 3 (2007) BDRip x264 720p Hun","uid":9135335,"size":1725910183,"categoryP":"video","categoryS":"hd___movies","magnet":"?xt=urn:btih:8992f2450f584076d418735370edb81f3d16c036&amp;dn=Shrek+3+%282007%29+BDRip+x264+720p+Hun&amp;tr=udp%3A%2F%2Ftracker.openbittorrent.com%3A80&amp;tr=udp%3A%2F%2Fopen.demonii.com%3A1337&amp;tr=udp%3A%2F%2Ftracker.coppersurfer.tk%3A6969&amp;tr=udp%3A%2F%2Fexodus.desync.com%3A6969","seeders":1,"leechers":1,"uploader":"rinoceros","files":-1,"time":1383402233,"description":"Shrek 3 (2007) BDRip x264 720p Hun\n\nGeneral\nUnique ID                                : 234086554422057314215407677497954134377 (0xB01B6E338B1104B4B69ECE54AEB5E969)\nComplete name                            : F:Shrek 3 (2007) BDRip x264 720p HunShrek 3 (2007) 720p.mkv\nFormat                                   : Matroska\nFormat version                           : Version 4 / Version 2\nFile size                                : 1.61 GiB\nDuration                                 : 1h 32mn\nOverall bit rate                         : 2 481 Kbps\nEncoded date                             : UTC 2013-11-02 11:47:17\nWriting application                      : mkvmerge v6.4.1 ('Omega Point') built on Sep 16 2013 22:05:10\nWriting library                          : libebml v1.3.0 + libmatroska v1.4.1\n\nVideo\nID                                       : 1\nFormat                                   : AVC\nFormat/Info                              : Advanced Video Codec\nFormat profile                           : &lt;a class=&quot;__cf_email__&quot; href=&quot;/cdn-cgi/l/email-protection&quot; data-cfemail=&quot;763e1f111e363a425847&quot;&gt;[email&amp;#160;protected]&lt;/a&gt;&lt;script cf-hash='f9e31' type=&quot;text/javascript&quot;&gt;\n/* &lt;![CDATA[ */!function(){try{var t=&quot;currentScript&quot;in document?document.currentScript:function(){for(var t=document.getElementsByTagName(&quot;script&quot;),e=t.length;e--;)if(t[e].getAttribute(&quot;cf-hash&quot;))return t[e]}();if(t&amp;&amp;t.previousSibling){var e,r,n,i,c=t.previousSibling,a=c.getAttribute(&quot;data-cfemail&quot;);if(a){for(e=&quot;&quot;,r=parseInt(a.substr(0,2),16),n=2;a.length-n;n+=2)i=parseInt(a.substr(n,2),16)^r,e+=String.fromCharCode(i);e=document.createTextNode(e),c.parentNode.replaceChild(e,c)}}}catch(u){}}();/* ]]&gt; */&lt;/script&gt;\nFormat settings, CABAC                   : Yes\nFormat settings, ReFrames                : 8 frames\nCodec ID                                 : V_MPEG4/ISO/AVC\nDuration                                 : 1h 32mn\nBit rate                                 : 2 096 Kbps\nWidth                                    : 1 280 pixels\nHeight                                   : 720 pixels\nDisplay aspect ratio                     : 16:9\nFrame rate mode                          : Constant\nFrame rate                               : 23.976 fps\nColor space                              : YUV\nChroma subsampling                       : 4:2:0\nBit depth                                : 8 bits\nScan type                                : Progressive\nBits/(Pixel*Frame)                       : 0.095\nStream size                              : 1.33 GiB (83%)\nTitle                                    : Shrek 3 (2007) 720p\nWriting library                          : x264 core 107 r1745 4785e8e\nEncoding settings                        : cabac=1 // deblock=1:1:-3 / analyse=0x3:0x113 / me=umh / subme=10 / psy=1 / psy_rd=1.01:0.01 // me_range=32 / chroma_me=1 / trellis=2 / 8x8dct=1 / cqm=0 / deadzone=21,11 / fast_pskip=0 / chroma_qp_offset=-3 / threads=6 / sliced_threads=0 / nr=0 / decimate=0 / interlaced=0 / constrained_intra=0 / bframes=5 / b_pyramid=2 / b_adapt=2 / b_bias=0 / direct=2 / weightb=1 / open_gop=0 / weightp=2 / keyint=250 / keyint_min=23 / scenecut=40 / intra_refresh=0 / rc_lookahead=50 / rc=2pass / mbtree=1 / bitrate=2096 / ratetol=1.5 / qcomp=0.60 / qpmin=10 / qpmax=51 / qpstep=4 / cplxblur=20.0 / qblur=0.5 / vbv_maxrate=40000 / vbv_bufsize=30000 / ip_ratio=1.40 / aq=2:0.90 / nal_hrd=none\nDefault                                  : Yes\nForced                                   : No\n\nAudio\nID                                       : 2\nFormat                                   : AC-3\nFormat/Info                              : Audio Coding 3\nMode extension                           : CM (complete main)\nFormat settings, Endianness              : Big\nCodec ID                                 : A_AC3\nDuration                                 : 1h 32mn\nBit rate mode                            : Constant\nBit rate                                 : 384 Kbps\nChannel(s)                               : 6 channels\nChannel positions                        : Front: L C R, Side: L R, LFE\nSampling rate                            : 48.0 KHz\nBit depth                                : 16 bits\nCompression mode                         : Lossy\nDelay relative to video                  : -67ms\nStream size                              : 255 MiB (15%)\nTitle                                    : AC3 5.1\nLanguage                                 : Hungarian\nDefault                                  : Yes\nForced                                   : No\n &lt;a href=&quot;\nhttp://port.hu/harmadik_shrek_shrek_the_third/pls/fi/films.film_page?i_where=2&amp;i_film_id=75083&amp;i_city_id=-1&amp;i_county_id=-1&amp;i_topic_id=2&quot; rel=&quot;nofollow&quot; target=&quot;_NEW&quot;&gt;\nhttp://port.hu/harmadik_shrek_shrek_the_third/pls/fi/films.film_page?i_where=2&amp;i_film_id=75083&amp;i_city_id=-1&amp;i_county_id=-1&amp;i_topic_id=2&lt;/a&gt;","torrent":{"xt":"urn:btih:8992f2450f584076d418735370edb81f3d16c036","amp;dn":"Shrek+3+%282007%29+BDRip+x264+720p+Hun","amp;tr":["udp%3A%2F%2Ftracker.openbittorrent.com%3A80","udp%3A%2F%2Fopen.demonii.com%3A1337","udp%3A%2F%2Ftracker.coppersurfer.tk%3A6969","udp%3A%2F%2Fexodus.desync.com%3A6969"],"infoHash":"8992f2450f584076d418735370edb81f3d16c036","infoHashBuffer":{"type":"Buffer","data":[137,146,242,69,15,88,64,118,212,24,115,83,112,237,184,31,61,22,192,54]},"announce":[],"urlList":[]}}